<mxfile host="app.diagrams.net" agent="Mozilla/5.0 (Windows NT 10.0; Win64; x64) AppleWebKit/537.36 (KHTML, like Gecko) Chrome/127.0.0.0 Safari/537.36" version="26.0.15">
  <diagram name="Page-1" id="ldlSG1oyoKGxv6nHaF_B">
    <mxGraphModel dx="1050" dy="565" grid="1" gridSize="10" guides="1" tooltips="1" connect="1" arrows="1" fold="1" page="1" pageScale="1" pageWidth="827" pageHeight="1169" math="0" shadow="0">
      <root>
        <mxCell id="0" />
        <mxCell id="1" parent="0" />
        <mxCell id="9yk7ptVfpPYM_TUA4ZYs-26" value="" style="edgeStyle=orthogonalEdgeStyle;rounded=0;orthogonalLoop=1;jettySize=auto;html=1;entryX=1;entryY=0.5;entryDx=0;entryDy=0;" edge="1" parent="1" source="9yk7ptVfpPYM_TUA4ZYs-20" target="9yk7ptVfpPYM_TUA4ZYs-22">
          <mxGeometry relative="1" as="geometry">
            <Array as="points">
              <mxPoint x="250" y="355" />
              <mxPoint x="250" y="355" />
            </Array>
          </mxGeometry>
        </mxCell>
        <mxCell id="9yk7ptVfpPYM_TUA4ZYs-20" value="" style="rounded=0;whiteSpace=wrap;html=1;dashed=1;strokeWidth=2;" vertex="1" parent="1">
          <mxGeometry x="275.5" y="204.34999999999997" width="299" height="305.65" as="geometry" />
        </mxCell>
        <mxCell id="9yk7ptVfpPYM_TUA4ZYs-22" value="" style="rounded=0;whiteSpace=wrap;html=1;dashed=1;strokeWidth=2;" vertex="1" parent="1">
          <mxGeometry x="30" y="210" width="190" height="300" as="geometry" />
        </mxCell>
        <mxCell id="9yk7ptVfpPYM_TUA4ZYs-2" value="接入层" style="html=1;shadow=0;dashed=0;align=center;verticalAlign=middle;shape=mxgraph.arrows2.arrow;dy=0;dx=10;notch=10;fillColor=#dae8fc;strokeColor=#6c8ebf;" vertex="1" parent="1">
          <mxGeometry x="50" y="120" width="180" height="60" as="geometry" />
        </mxCell>
        <mxCell id="9yk7ptVfpPYM_TUA4ZYs-3" value="应用层" style="html=1;shadow=0;dashed=0;align=center;verticalAlign=middle;shape=mxgraph.arrows2.arrow;dy=0;dx=10;notch=10;fillColor=#dae8fc;strokeColor=#6c8ebf;" vertex="1" parent="1">
          <mxGeometry x="340" y="120" width="170" height="60" as="geometry" />
        </mxCell>
        <mxCell id="9yk7ptVfpPYM_TUA4ZYs-4" value="移动端" style="sketch=0;aspect=fixed;pointerEvents=1;shadow=0;dashed=0;html=1;strokeColor=none;labelPosition=center;verticalLabelPosition=bottom;verticalAlign=top;align=center;fillColor=#00188D;shape=mxgraph.mscae.enterprise.android_phone" vertex="1" parent="1">
          <mxGeometry x="780" y="210" width="30" height="50" as="geometry" />
        </mxCell>
        <mxCell id="9yk7ptVfpPYM_TUA4ZYs-5" value="PC端" style="shape=mxgraph.signs.tech.computer;html=1;pointerEvents=1;fillColor=#000000;strokeColor=none;verticalLabelPosition=bottom;verticalAlign=top;align=center;" vertex="1" parent="1">
          <mxGeometry x="760" y="360" width="84" height="78" as="geometry" />
        </mxCell>
        <mxCell id="9yk7ptVfpPYM_TUA4ZYs-27" value="" style="edgeStyle=orthogonalEdgeStyle;rounded=0;orthogonalLoop=1;jettySize=auto;html=1;" edge="1" parent="1" source="9yk7ptVfpPYM_TUA4ZYs-6">
          <mxGeometry relative="1" as="geometry">
            <mxPoint x="560" y="330" as="targetPoint" />
          </mxGeometry>
        </mxCell>
        <mxCell id="9yk7ptVfpPYM_TUA4ZYs-6" value="" style="html=1;verticalLabelPosition=bottom;align=center;labelBackgroundColor=#ffffff;verticalAlign=top;strokeWidth=2;strokeColor=#6c8ebf;shadow=0;dashed=0;shape=mxgraph.ios7.icons.cloud;fillColor=#dae8fc;" vertex="1" parent="1">
          <mxGeometry x="670" y="310" width="40" height="40" as="geometry" />
        </mxCell>
        <mxCell id="9yk7ptVfpPYM_TUA4ZYs-7" value="互联网" style="text;html=1;align=center;verticalAlign=middle;whiteSpace=wrap;rounded=0;" vertex="1" parent="1">
          <mxGeometry x="660" y="285" width="60" height="30" as="geometry" />
        </mxCell>
        <mxCell id="9yk7ptVfpPYM_TUA4ZYs-11" value="" style="points=[];aspect=fixed;html=1;align=center;shadow=0;dashed=0;fillColor=light-dark(#8ecdd2, #e9690e);strokeColor=none;shape=mxgraph.alibaba_cloud.ecs_elastic_compute_service;" vertex="1" parent="1">
          <mxGeometry x="365.4" y="300" width="48.6" height="45.3" as="geometry" />
        </mxCell>
        <mxCell id="9yk7ptVfpPYM_TUA4ZYs-12" value="" style="points=[];aspect=fixed;html=1;align=center;shadow=0;dashed=0;fillColor=light-dark(#a3ddf0, #e9690e);strokeColor=none;shape=mxgraph.alibaba_cloud.oss_object_storage_service;" vertex="1" parent="1">
          <mxGeometry x="450" y="300" width="50.699999999999996" height="38.7" as="geometry" />
        </mxCell>
        <mxCell id="9yk7ptVfpPYM_TUA4ZYs-13" value="ECS" style="text;html=1;align=center;verticalAlign=middle;whiteSpace=wrap;rounded=0;fontStyle=1" vertex="1" parent="1">
          <mxGeometry x="356" y="350" width="60" height="30" as="geometry" />
        </mxCell>
        <mxCell id="9yk7ptVfpPYM_TUA4ZYs-14" value="OSS" style="text;html=1;align=center;verticalAlign=middle;whiteSpace=wrap;rounded=0;" vertex="1" parent="1">
          <mxGeometry x="450" y="340" width="60" height="35.3" as="geometry" />
        </mxCell>
        <mxCell id="9yk7ptVfpPYM_TUA4ZYs-15" value="" style="image;aspect=fixed;perimeter=ellipsePerimeter;html=1;align=center;shadow=0;dashed=0;spacingTop=3;image=img/lib/active_directory/web_server.svg;" vertex="1" parent="1">
          <mxGeometry x="97" y="290" width="56" height="70" as="geometry" />
        </mxCell>
        <mxCell id="9yk7ptVfpPYM_TUA4ZYs-16" style="edgeStyle=orthogonalEdgeStyle;rounded=0;orthogonalLoop=1;jettySize=auto;html=1;exitX=0.01;exitY=0.99;exitDx=0;exitDy=0;exitPerimeter=0;entryX=1;entryY=0.5;entryDx=0;entryDy=0;entryPerimeter=0;" edge="1" parent="1" source="9yk7ptVfpPYM_TUA4ZYs-4" target="9yk7ptVfpPYM_TUA4ZYs-6">
          <mxGeometry relative="1" as="geometry" />
        </mxCell>
        <mxCell id="9yk7ptVfpPYM_TUA4ZYs-17" style="edgeStyle=orthogonalEdgeStyle;rounded=0;orthogonalLoop=1;jettySize=auto;html=1;exitX=0;exitY=0.5;exitDx=0;exitDy=0;exitPerimeter=0;entryX=0.57;entryY=0.915;entryDx=0;entryDy=0;entryPerimeter=0;" edge="1" parent="1" source="9yk7ptVfpPYM_TUA4ZYs-5" target="9yk7ptVfpPYM_TUA4ZYs-6">
          <mxGeometry relative="1" as="geometry" />
        </mxCell>
        <mxCell id="9yk7ptVfpPYM_TUA4ZYs-19" value="" style="rounded=0;whiteSpace=wrap;html=1;dashed=1;opacity=10;strokeWidth=2;" vertex="1" parent="1">
          <mxGeometry x="440" y="230" width="80" height="230" as="geometry" />
        </mxCell>
        <mxCell id="9yk7ptVfpPYM_TUA4ZYs-21" value="阿里云" style="text;html=1;align=center;verticalAlign=middle;whiteSpace=wrap;rounded=0;" vertex="1" parent="1">
          <mxGeometry x="395" y="180" width="60" height="30" as="geometry" />
        </mxCell>
        <mxCell id="9yk7ptVfpPYM_TUA4ZYs-23" value="" style="shape=curlyBracket;whiteSpace=wrap;html=1;rounded=1;flipH=1;labelPosition=right;verticalLabelPosition=middle;align=left;verticalAlign=middle;direction=north;size=0.5;" vertex="1" parent="1">
          <mxGeometry x="380" y="530" width="400" height="40" as="geometry" />
        </mxCell>
        <mxCell id="9yk7ptVfpPYM_TUA4ZYs-24" value="互联网" style="text;html=1;align=center;verticalAlign=middle;whiteSpace=wrap;rounded=0;" vertex="1" parent="1">
          <mxGeometry x="562.5" y="570" width="60" height="30" as="geometry" />
        </mxCell>
        <mxCell id="9yk7ptVfpPYM_TUA4ZYs-25" value="公司服务器" style="text;html=1;align=center;verticalAlign=middle;whiteSpace=wrap;rounded=0;" vertex="1" parent="1">
          <mxGeometry x="95" y="180" width="85" height="30" as="geometry" />
        </mxCell>
        <mxCell id="9yk7ptVfpPYM_TUA4ZYs-29" value="阿里云防火墙" style="image;aspect=fixed;html=1;points=[];align=center;fontSize=12;image=img/lib/azure2/networking/Azure_Firewall_Manager.svg;" vertex="1" parent="1">
          <mxGeometry x="530" y="315" width="70" height="60" as="geometry" />
        </mxCell>
        <mxCell id="9yk7ptVfpPYM_TUA4ZYs-32" value="" style="shape=curlyBracket;whiteSpace=wrap;html=1;rounded=1;flipH=1;labelPosition=right;verticalLabelPosition=middle;align=left;verticalAlign=middle;direction=north;size=0.5;" vertex="1" parent="1">
          <mxGeometry x="30" y="510" width="190" height="40" as="geometry" />
        </mxCell>
        <mxCell id="9yk7ptVfpPYM_TUA4ZYs-33" style="edgeStyle=orthogonalEdgeStyle;rounded=0;orthogonalLoop=1;jettySize=auto;html=1;exitX=0.1;exitY=0.5;exitDx=0;exitDy=0;exitPerimeter=0;entryX=0.25;entryY=0.5;entryDx=0;entryDy=0;entryPerimeter=0;" edge="1" parent="1" source="9yk7ptVfpPYM_TUA4ZYs-32" target="9yk7ptVfpPYM_TUA4ZYs-32">
          <mxGeometry relative="1" as="geometry" />
        </mxCell>
        <mxCell id="9yk7ptVfpPYM_TUA4ZYs-34" value="局域网" style="text;html=1;align=center;verticalAlign=middle;whiteSpace=wrap;rounded=0;" vertex="1" parent="1">
          <mxGeometry x="93" y="550" width="60" height="30" as="geometry" />
        </mxCell>
        <mxCell id="9yk7ptVfpPYM_TUA4ZYs-35" value="" style="shape=curlyBracket;whiteSpace=wrap;html=1;rounded=1;flipH=1;labelPosition=right;verticalLabelPosition=middle;align=left;verticalAlign=middle;direction=north;size=0.5;strokeColor=#CC6600;strokeWidth=3;" vertex="1" parent="1">
          <mxGeometry x="120" y="584" width="275" height="40" as="geometry" />
        </mxCell>
        <mxCell id="9yk7ptVfpPYM_TUA4ZYs-36" value="虚拟专网" style="text;html=1;align=center;verticalAlign=middle;whiteSpace=wrap;rounded=0;" vertex="1" parent="1">
          <mxGeometry x="230" y="640" width="60" height="30" as="geometry" />
        </mxCell>
        <mxCell id="9yk7ptVfpPYM_TUA4ZYs-18" value="" style="rounded=0;whiteSpace=wrap;html=1;dashed=1;opacity=10;strokeWidth=2;" vertex="1" parent="1">
          <mxGeometry x="343" y="230" width="82" height="230" as="geometry" />
        </mxCell>
      </root>
    </mxGraphModel>
  </diagram>
</mxfile>
